# xmcd
#
# Track frame offsets:
#  150
#  14329
#  28550
#  43094
#  58747
#  72244
#  86131
#  102302
#  116470
#  130389
#  146850
#  165404
#  183004
#  198325
#  213327
#  232980
#  248048
#  261797
#  277426
#  294577
#
# Disc length: 4179 seconds
#
# Revision: 0
# Processed by: cddbd v1.5.1PL2 Copyright (c) Steve Scherf et al.
# Submitted via: Collectorz.com_Music_Collector 6.9
#
DISCID=2c105114
DTITLE=Various Artist - Cd 2
DYEAR=2005
DGENRE=Pop
TTITLE0=Uniting Nations feat. Laura More - Ai No Corrida
TTITLE1=David Guetta - The World Is Mine
TTITLE2=Michael Gray - The Weekend
TTITLE3=ATB - Let You Go/2005 Reworked/
TTITLE4=Ann Winsborn - La La Love On My Mind
TTITLE5=Narcotic Thrust - I Like It
TTITLE6=Laura Gauthier - De Moi, De Toi
TTITLE7=Lou Bega - You Wanna Be Americano
TTITLE8=Elize - I'm No Latino
TTITLE9=Lutricia McNeal - It's Not Easy
TTITLE10=Zandra - Why
TTITLE11=Lil' Love - Little Love
TTITLE12=Bluelagoon - Heartbreaker
TTITLE13=Stereoliza - X.Y.Z.
TTITLE14=Amanda Lear - Enigma (Give A Little Bit Of Mmh To Me)
TTITLE15=Jenn Cuneta - Come Rain Come Shine
TTITLE16=Baracuda - Ass Up
TTITLE17=Dannii Minogue and The Soul Seekerz - Perfection
TTITLE18=Banach feat. Dziun - Jej Piosenka O Miłości
TTITLE19=U2 - City Of Blinding Lights
EXTD=
EXTT0=
EXTT1=
EXTT2=
EXTT3=
EXTT4=
EXTT5=
EXTT6=
EXTT7=
EXTT8=
EXTT9=
EXTT10=
EXTT11=
EXTT12=
EXTT13=
EXTT14=
EXTT15=
EXTT16=
EXTT17=
EXTT18=
EXTT19=
PLAYORDER=
